# Blender v2.82 (sub 7) OBJ File: 'meteor2.blend'
# www.blender.org
mtllib meteor2.mtl
o Sphere
v 0.000000 0.980785 -0.195090
v 0.000000 -0.195090 -0.980785
v 0.587938 0.555570 -0.587938
v 0.392848 -0.831470 -0.392847
v 0.195091 0.980785 0.000000
v 0.980785 -0.195090 0.000000
v 0.587938 0.555570 0.587938
v 0.392848 -0.831470 0.392848
v 0.000000 -1.000000 0.000000
v -0.000000 0.980785 0.195091
v -0.000000 -0.195090 0.980785
v -0.000000 1.000000 0.000001
v -0.587938 0.555570 0.587938
v -0.392847 -0.831470 0.392848
v -0.195090 0.980785 0.000000
v -0.980785 -0.195090 0.000000
v -0.587937 0.555570 -0.587937
v -0.392847 -0.831470 -0.392847
vt 0.250000 0.437500
vt 0.125000 0.687500
vt 1.000000 0.437500
vt 0.125000 0.187500
vt 0.750000 0.437500
vt 0.875000 0.687500
vt 0.750000 0.937500
vt 0.625000 0.687500
vt 0.421875 0.000000
vt 0.375000 0.187500
vt 0.500000 0.437500
vt 0.625000 0.187500
vt 0.375000 0.687500
vt 0.250000 0.937500
vt 0.000000 0.437500
vt 0.875000 0.187500
vt 0.500000 0.937500
vt 0.265625 1.000000
vt 0.171875 0.000000
vt 1.000000 0.937500
vt 0.015625 1.000000
vt 0.765625 1.000000
vt 0.515625 1.000000
vt 0.921875 0.000000
vt 0.671875 0.000000
vn -0.6935 -0.1951 0.6935
vn -0.0000 0.5556 -0.8315
vn -0.0000 -0.7730 0.6344
vn 0.6935 -0.1951 -0.6935
vn -0.0000 0.5556 0.8315
vn -0.6935 -0.1951 -0.6935
vn 0.3333 0.8819 0.3333
vn -0.6344 -0.7730 -0.0000
vn -0.8315 0.5556 -0.0000
vn -0.3333 0.8819 0.3333
vn -0.3333 0.8819 -0.3333
vn 0.3333 0.8819 -0.3333
vn 0.6935 -0.1951 0.6935
vn -0.0000 -0.7730 -0.6344
vn 0.6344 -0.7730 0.0000
vn 0.8315 0.5556 0.0000
usemtl Bruh
s off
f 11/1/1 13/2/1 16/3/1 14/4/1
f 2/5/2 17/6/2 1/7/2 3/8/2
f 14/4/3 9/9/3 8/10/3 11/1/3
f 2/5/4 3/8/4 6/11/4 4/12/4
f 7/13/5 10/14/5 13/2/5 11/1/5
f 16/15/6 17/6/6 2/5/6 18/16/6
f 5/17/7 12/18/7 10/14/7 7/13/7
f 18/16/8 9/19/8 14/4/8 16/15/8
f 13/2/9 15/20/9 17/6/9 16/3/9
f 10/14/10 12/21/10 15/20/10 13/2/10
f 17/6/11 15/20/11 12/22/11 1/7/11
f 1/7/12 12/23/12 5/17/12 3/8/12
f 6/11/13 7/13/13 11/1/13 8/10/13
f 4/12/14 9/24/14 18/16/14 2/5/14
f 8/10/15 9/25/15 4/12/15 6/11/15
f 3/8/16 5/17/16 7/13/16 6/11/16
